HIERARCHY
ROOT Hips
{
	OFFSET -14.64140 90.27770 -84.91600
	CHANNELS 6 Xposition Yposition Zposition Zrotation Xrotation Yrotation
	JOINT Spine
	{
		OFFSET 0.00000 13.20850 -1.60436
		CHANNELS 3 Zrotation Xrotation Yrotation
		JOINT Spine1
		{
			OFFSET 0.00000 8.61716 0.00000
			CHANNELS 3 Zrotation Xrotation Yrotation
			JOINT Spine2
			{
				OFFSET 0.00000 8.61717 0.00000
				CHANNELS 3 Zrotation Xrotation Yrotation
				JOINT Spine3
				{
					OFFSET 0.00000 8.61717 0.00000
					CHANNELS 3 Zrotation Xrotation Yrotation
					JOINT Neck
					{
						OFFSET 0.00000 11.07920 1.10792
						CHANNELS 3 Zrotation Xrotation Yrotation
						JOINT Neck1
						{
							OFFSET 0.00000 7.08032 0.00000
							CHANNELS 3 Zrotation Xrotation Yrotation
							JOINT Head
							{
								OFFSET 0.00000 7.08031 0.00000
								CHANNELS 3 Zrotation Xrotation Yrotation
								End site
								{
									OFFSET 0.00000 0.00000 0.00000
								}
							}
						}
					}
					JOINT RightShoulder
					{
						OFFSET -0.01000 7.91373 5.19711
						CHANNELS 3 Zrotation Xrotation Yrotation
						JOINT RightArm
						{
							OFFSET -18.41580 0.00000 0.00000
							CHANNELS 3 Zrotation Xrotation Yrotation
							JOINT RightForeArm
							{
								OFFSET -29.11090 0.00000 0.00000
								CHANNELS 3 Zrotation Xrotation Yrotation
								JOINT RightHand
								{
									OFFSET -24.65040 0.00000 0.00000
									CHANNELS 3 Zrotation Xrotation Yrotation
									JOINT RightHandThumb1
									{
										OFFSET -5.35114 -0.85590 3.97906
										CHANNELS 3 Zrotation Xrotation Yrotation
										JOINT RightHandThumb2
										{
											OFFSET -4.52789 0.00000 0.00000
											CHANNELS 3 Zrotation Xrotation Yrotation
											JOINT RightHandThumb3
											{
												OFFSET -2.46976 0.00000 0.00000
												CHANNELS 3 Zrotation Xrotation Yrotation
												End site
												{
													OFFSET 0.00000 0.00000 0.00000
												}
											}
										}
									}
									JOINT RightHandIndex1
									{
										OFFSET -14.26970 0.00000 2.88139
										CHANNELS 3 Zrotation Xrotation Yrotation
										JOINT RightHandIndex2
										{
											OFFSET -5.48836 0.00000 0.00000
											CHANNELS 3 Zrotation Xrotation Yrotation
											JOINT RightHandIndex3
											{
												OFFSET -3.01859 0.00000 0.00000
												CHANNELS 3 Zrotation Xrotation Yrotation
												End site
												{
													OFFSET 0.00000 0.00000 0.00000
												}
											}
										}
									}
									JOINT RightHandMiddle1
									{
										OFFSET -14.26970 0.00000 -0.09147
										CHANNELS 3 Zrotation Xrotation Yrotation
										JOINT RightHandMiddle2
										{
											OFFSET -6.17441 0.00000 0.00000
											CHANNELS 3 Zrotation Xrotation Yrotation
											JOINT RightHandMiddle3
											{
												OFFSET -3.56743 0.00000 0.00000
												CHANNELS 3 Zrotation Xrotation Yrotation
												End site
												{
													OFFSET 0.00000 0.00000 0.00000
												}
											}
										}
									}
									JOINT RightHandRing1
									{
										OFFSET -12.69180 0.00000 -3.06433
										CHANNELS 3 Zrotation Xrotation Yrotation
										JOINT RightHandRing2
										{
											OFFSET -5.62556 0.00000 0.00000
											CHANNELS 3 Zrotation Xrotation Yrotation
											JOINT RightHandRing3
											{
												OFFSET -3.56744 0.00000 0.00000
												CHANNELS 3 Zrotation Xrotation Yrotation
												End site
												{
													OFFSET 0.00000 0.00000 0.00000
												}
											}
										}
									}
									JOINT RightHandPinky1
									{
										OFFSET -11.11390 0.00000 -6.03719
										CHANNELS 3 Zrotation Xrotation Yrotation
										JOINT RightHandPinky2
										{
											OFFSET -4.52789 0.00000 0.00000
											CHANNELS 3 Zrotation Xrotation Yrotation
											JOINT RightHandPinky3
											{
												OFFSET -2.46976 0.00000 0.00000
												CHANNELS 3 Zrotation Xrotation Yrotation
												End site
												{
													OFFSET 0.00000 0.00000 0.00000
												}
											}
										}
									}
								}
							}
						}
					}
					JOINT LeftShoulder
					{
						OFFSET 0.01000 7.91373 5.19711
						CHANNELS 3 Zrotation Xrotation Yrotation
						JOINT LeftArm
						{
							OFFSET 18.41580 0.00000 0.00000
							CHANNELS 3 Zrotation Xrotation Yrotation
							JOINT LeftForeArm
							{
								OFFSET 29.11090 0.00000 0.00000
								CHANNELS 3 Zrotation Xrotation Yrotation
								JOINT LeftHand
								{
									OFFSET 24.65040 0.00000 0.00000
									CHANNELS 3 Zrotation Xrotation Yrotation
									JOINT LeftHandThumb1
									{
										OFFSET 5.35114 -0.85590 3.97906
										CHANNELS 3 Zrotation Xrotation Yrotation
										JOINT LeftHandThumb2
										{
											OFFSET 4.52789 0.00000 0.00000
											CHANNELS 3 Zrotation Xrotation Yrotation
											JOINT LeftHandThumb3
											{
												OFFSET 2.46977 0.00000 0.00000
												CHANNELS 3 Zrotation Xrotation Yrotation
												End site
												{
													OFFSET 0.00000 0.00000 0.00000
												}
											}
										}
									}
									JOINT LeftHandIndex1
									{
										OFFSET 14.26970 0.00000 2.88139
										CHANNELS 3 Zrotation Xrotation Yrotation
										JOINT LeftHandIndex2
										{
											OFFSET 5.48836 0.00000 0.00000
											CHANNELS 3 Zrotation Xrotation Yrotation
											JOINT LeftHandIndex3
											{
												OFFSET 3.01859 0.00000 0.00000
												CHANNELS 3 Zrotation Xrotation Yrotation
												End site
												{
													OFFSET 0.00000 0.00000 0.00000
												}
											}
										}
									}
									JOINT LeftHandMiddle1
									{
										OFFSET 14.26970 0.00000 -0.09147
										CHANNELS 3 Zrotation Xrotation Yrotation
										JOINT LeftHandMiddle2
										{
											OFFSET 6.17440 0.00000 0.00000
											CHANNELS 3 Zrotation Xrotation Yrotation
											JOINT LeftHandMiddle3
											{
												OFFSET 3.56744 0.00000 0.00000
												CHANNELS 3 Zrotation Xrotation Yrotation
												End site
												{
													OFFSET 0.00000 0.00000 0.00000
												}
											}
										}
									}
									JOINT LeftHandRing1
									{
										OFFSET 12.69180 0.00000 -3.06433
										CHANNELS 3 Zrotation Xrotation Yrotation
										JOINT LeftHandRing2
										{
											OFFSET 5.62556 0.00000 0.00000
											CHANNELS 3 Zrotation Xrotation Yrotation
											JOINT LeftHandRing3
											{
												OFFSET 3.56744 0.00000 0.00000
												CHANNELS 3 Zrotation Xrotation Yrotation
												End site
												{
													OFFSET 0.00000 0.00000 0.00000
												}
											}
										}
									}
									JOINT LeftHandPinky1
									{
										OFFSET 11.11390 0.00000 -6.03719
										CHANNELS 3 Zrotation Xrotation Yrotation
										JOINT LeftHandPinky2
										{
											OFFSET 4.52789 0.00000 0.00000
											CHANNELS 3 Zrotation Xrotation Yrotation
											JOINT LeftHandPinky3
											{
												OFFSET 2.46976 0.00000 0.00000
												CHANNELS 3 Zrotation Xrotation Yrotation
												End site
												{
													OFFSET 0.00000 0.00000 0.00000
												}
											}
										}
									}
								}
							}
						}
					}
					JOINT pCube4
					{
						OFFSET 0.00000 10.91090 1.10792
						CHANNELS 3 Zrotation Xrotation Yrotation
						End site
						{
							OFFSET 0.00000 0.00000 0.00000
						}
					}
				}
			}
		}
	}
	JOINT RightUpLeg
	{
		OFFSET -9.98441 0.00000 0.00000
		CHANNELS 3 Zrotation Xrotation Yrotation
		JOINT RightLeg
		{
			OFFSET 0.00000 -42.11790 0.00000
			CHANNELS 3 Zrotation Xrotation Yrotation
			JOINT RightFoot
			{
				OFFSET 0.00000 -45.00020 -0.00001
				CHANNELS 3 Zrotation Xrotation Yrotation
				JOINT RightForeFoot
				{
					OFFSET 0.00000 -3.74820 0.00000
					CHANNELS 3 Zrotation Xrotation Yrotation
					JOINT RightToeBase
					{
						OFFSET 0.00000 0.06325 14.43120
						CHANNELS 3 Zrotation Xrotation Yrotation
						End site
						{
							OFFSET 0.00000 0.00000 0.00000
						}
					}
				}
			}
		}
	}
	JOINT LeftUpLeg
	{
		OFFSET 9.98441 0.00000 0.00000
		CHANNELS 3 Zrotation Xrotation Yrotation
		JOINT LeftLeg
		{
			OFFSET 0.00000 -42.11800 0.00000
			CHANNELS 3 Zrotation Xrotation Yrotation
			JOINT LeftFoot
			{
				OFFSET 0.00000 -45.00070 0.00000
				CHANNELS 3 Zrotation Xrotation Yrotation
				JOINT LeftForeFoot
				{
					OFFSET 0.00000 -3.74824 0.00000
					CHANNELS 3 Zrotation Xrotation Yrotation
					JOINT LeftToeBase
					{
						OFFSET 0.00000 0.06325 14.43110
						CHANNELS 3 Zrotation Xrotation Yrotation
						End site
						{
							OFFSET 0.00000 0.00000 0.00000
						}
					}
				}
			}
		}
	}
}
MOTION
Frames: 4
Frame Time: 0.050000
0.04379304093564238 -0.0221266498595017 0.03303672885574336 0.007558141324438429 -0.032752939463869014 0.01947237402707133 -1.3433816784793824 1.3671706695590162 -1.0344867545526872 -0.44905889902233354 3.910248017978481 0.3672300018339702 -0.8227832954522515 -1.8483597788824129 1.9435588690373409 -1.3941448518126578 -0.8692445773730221 -0.2799891203474381 -0.14563858502912577 14.887344253325063 0.9802978152870939 0.5877374480686628 -0.20690791345120269 0.7473074466769165 0.4864814497968862 -15.283623335751077 0.04977701543112442 -4.607962341316578 1.8082059525667147 -13.744433759047375 69.09568704959004 -1.3543678860023582 47.2812725776835 9.309808623242894 6.029201355951872 109.76536738605488 18.974230981055666 -0.5463532493057309 -0.9736468373881296 4.501976290208465 -0.09959587627997923 -1.626847666780136 -0.005253426008025885 -0.024614838609804457 -56.25386631647729 -0.016518866182032053 0.0008205132962510077 -56.23278759667297 -38.7672304500126 -0.008174327930629045 -0.020847546538304458 -0.012746955273065748 0.004472560164139863 0.03495078334376303 0.04366118194385547 -0.011370429344550582 0.020272496016853776 -36.694754318387226 -0.002646341429115792 -0.03835791992552972 0.0052017796565081535 -0.040185139420883885 0.024901101361222384 -0.024840796857708052 0.0004446408308010412 -0.028410479721310066 -19.76806795501496 0.0396365826232834 -0.03494457613063991 -0.043559738003503046 -0.016754494359926892 -0.023921214971659808 -0.022509805426870862 0.011565265414545374 -0.02463382026903614 24.071452087118622 0.031109843161995467 -0.0010885027953124614 28.898918068713698 0.04537173351318891 -0.022709591545637692 28.841540521815055 0.018448696355029565 0.026505585996400054 5.398514233410003 1.3152312901574952 13.437461278495585 -70.72878104868387 17.027901422586464 -25.186048011356405 0.41752942348576394 -3.11020393935475 -97.94311049829506 -18.75110923434465 8.834678726692573 -7.992479381192859 -0.46611049367799057 0.04254886941922678 -8.13293756701409 0.04470092558474432 0.011669310933198774 44.53136510279536 -0.034004503076403236 0.043811652034613624 44.558028965221396 12.483629904345461 -0.04156301450280787 0.033205454595799 -0.026661618010466695 0.017038350262078693 -0.041789286992930205 -0.04695214276248017 -0.0386410542141122 -0.009727955270518467 11.135908971830677 -0.022695120510420004 -0.010605577348153409 -0.04609297088471041 0.04202040119481304 -0.03847788992492439 0.01065776682598648 0.04845576741398801 0.011306402056515575 4.72415988361258 0.010690281255370726 0.0436719039448996 0.044450940513160134 -0.00622593481993063 -0.03253798009414984 0.04425284745333758 0.043428977452683606 0.031138442282616672 -5.594599799091433 0.02214578520506262 0.009994664722670236 -6.690320484482661 -0.024405226685478804 0.03702562622044175 -6.726445351092884 0.02092747084541749 0.008082625837714946 0.029678635878167083 -0.01708717391595028 0.04562358146638325 8.016984329962515 3.480304220786245 -19.262768897862614 -0.04869472860356727 10.408132269014207 -0.014347949401275446 -5.590912002509029 -15.69030360500662 3.1629884826541517 -0.010578660723711745 0.0003982396180484837 -0.006886603617762298 -0.011049012916346976 4.667544255441903 0.031900043771107625 12.451228054083392 -8.266796201547752 6.898819905250219 0.008938458755801914 46.3361548609414 -0.029821034082298054 -4.3049845972685885 -14.713320423689964 -3.8200402896516037 0.02245470643962161 -0.024794791452061843 0.03803353148978608 -0.01764340319986609 -10.76889591467972 0.04684858464820971 
0.032052721655978736 -0.010595129241034965 -0.022963577897946553 0.010438214107406824 -0.036269114612508334 -0.016495545062239526 -1.4046904126428374 1.2758236834538648 -1.0089292406771657 -0.4197178156276463 3.9918542377266313 0.29201456889685473 -0.7753055559143919 -1.9187652289734816 1.8783348326844378 -1.3936998149791655 -0.8419733105381764 -0.33839854676909115 -0.3041967559709965 15.08757105595707 1.2385756320048835 0.5452670752267641 -0.2771607787385039 1.2435802119465953 0.43517224938047194 -15.422889979161953 0.05167090843666778 -4.523416571231807 1.728264192525318 -13.665329334992965 69.57044285737656 -0.31573331521619796 47.189444390169555 8.57102750716269 5.668649360013904 111.04802725641491 18.9307377719401 -0.5474452354757277 -1.0107167200302014 4.562139255827806 -0.14032818367099537 -1.554844467384213 -0.04731865326263571 -0.02705473956577425 -56.252714091966126 -0.02567602717524394 -0.04438124634395461 -56.276134340994275 -38.7864903690825 -0.018973137991839382 0.013856915483935308 -0.011266245767921013 -0.018053554732195512 0.04347420608025127 -0.02600441164810257 0.024129709519732645 0.03751037460576558 -36.70446227135287 -0.04790160409575772 -0.027338899100259596 -0.04726781321678061 -0.026978059971836957 0.03830569277999824 0.012974857706324292 0.010244287342513526 -0.007894187481600725 -19.75903499312827 -0.0017968902271845186 0.0403567086502438 -0.024576679414617993 -0.026635638722627062 0.035805664735534544 0.010856983335675797 0.03351465470298026 -0.023586857540479133 24.006351528796 -0.03716850878442134 0.017862226844966456 28.871971994402756 0.03332912858201185 0.015533146003767633 28.871184731699927 -0.01533370654973966 0.010851476236483073 5.630232449056531 1.3909760645537539 13.480351825569118 -70.49465208166639 17.729421025905918 -27.029861269431272 2.9893656526972916 -4.238468069273752 -101.05124345151114 -18.2483226510132 8.960024760289118 -8.109470981615097 -0.44463123420870415 0.02376749318264327 -8.121177558233482 -0.02110081444910399 0.04767088239906199 44.553496981537656 0.020132628835180903 0.045641699899023086 44.52962644698307 12.48561884909954 0.00015810157917106325 0.018090626948429805 -0.0012063912514154518 0.017076422656703717 -0.016955664090948886 0.012373291750228981 0.011534541664965712 0.002214054995793991 11.073416746154729 -0.039200657238621386 0.0010376902754887043 -0.00845522118989324 0.048812640752441974 0.022459953101286165 0.03181960900701608 -0.016781017847401717 0.018082381514016515 4.735415353081797 0.012228161265841182 0.006012112085748367 -0.03375316709295147 0.013901618287543242 -0.003140559363206401 -0.04514186808649196 0.01740087612853202 0.010339050934291454 -5.625453404414534 0.035775395342115573 -0.04777316497037417 -6.715835434968685 -0.030062092352814592 0.011848667423915386 -6.741410219786794 0.041817888355296984 -0.04829398989661129 -0.019729048647533082 -0.01847665510632634 0.012420073172934766 8.08799027518699 3.5279260988111774 -19.20253737962665 0.04765009726783315 10.377861254382683 0.06292876294215968 -5.598061683015673 -15.639029889572598 3.1735813811190225 0.021967991815296482 0.013378960522533866 -0.03625298693297478 0.028580040147390438 4.7311610759153755 0.0009339887855133978 12.45471295754192 -8.25695456109819 6.852795595690684 0.01104873928118192 46.42086286091158 0.0018225206232905884 -4.366014148924307 -14.765162849615134 -3.7886869697347474 -0.005055041177075683 0.026763493954670203 0.01247576922649927 -0.023462204501940174 -10.749702836522877 -0.03212615855411371 
-0.028284289355110254 0.018589178812784723 -0.045511016932068986 -0.011423968797672504 0.015558763691134994 0.030280248145732838 -1.4621174855053283 1.2170672355351955 -1.0066722855973689 -0.4593010003235459 3.97727602941237 0.37017576501523636 -0.787868751339012 -1.9167721035418375 1.7150120428671256 -1.339614003383754 -0.8434183913814638 -0.35086709696421153 -0.28051445968811767 15.302415583064246 1.2161321578431927 0.5719488535116894 -0.33740680773900994 1.481975646756878 0.43473683311661565 -15.5151547362056 0.025585400081655614 -4.470190934411503 1.7206031145459753 -13.713591408108675 70.32529386131564 0.3389309870439292 47.27915946414866 7.563481154361483 5.273979705600416 112.42655862412923 18.648972405906502 -0.5841937176481928 -1.0157548425073883 4.571865619521781 -0.11222523328710866 -1.5956568915165859 -0.025751830816846823 -0.046745049923727376 -56.26596277361867 0.040240994560666245 0.006097194940948661 -56.188594561962496 -38.74358607918354 0.022761213619005894 0.039865632751109534 0.03533168061414053 -0.014121872557512483 0.02270577329995579 -0.03962017136642116 -0.01064919682494769 0.010224514852374113 -36.68513142561247 0.03746186894146379 0.0022125762233379466 0.003058796396631034 -0.03729844963198849 -0.01543809231390926 0.046602579741376306 -0.018572643828440975 0.0494258655266222 -19.740940029223616 0.0425824052832577 -0.028210979575507143 0.031584617751499795 0.0055197698170008185 0.0279542372251765 0.047071555732264944 -0.023633703892013986 0.01640019966367431 24.07288289213666 -0.020688817726585502 0.025287025080289762 28.861129986727164 -0.006260449722600135 -0.03927979502463516 28.896169282546133 -0.022986603460527503 -0.011161319237665694 5.956565051268253 1.4774210355417414 13.479673367819442 -70.24797637439143 18.323736935060687 -28.697714787191703 5.112313587924853 -5.086050307590447 -103.74202400338699 -17.488545680405196 8.825120292808053 -8.035685287293584 -0.45705665508024546 0.07695466672729688 -8.081590558161286 0.03214849251535917 0.047287806206082056 44.5420638944564 0.022545829080312267 0.03753332174089637 44.521041614898294 12.481198907043533 -0.01972531880894464 0.03726386805842327 0.048463246360797844 0.017544477410795734 -0.026735427560572813 -0.038288803224865206 0.026960224733093084 0.009799210013503592 11.059121425085829 -0.04707596285536315 -0.043136129895251056 -0.0406390466715363 -0.014148785040614521 0.03593550763050391 0.03365373676391752 0.013498596736301303 -0.028207129806304104 4.727737618846514 0.028975139224885347 -0.015131990692680617 -0.023521654134381256 0.011427850405637938 -0.048199095124732805 -0.012095713533432795 -0.032747849165812075 0.013885717887526107 -5.601564639082043 0.03761790987185365 -0.03621162900357063 -6.708939272985811 -0.039388373358221956 -0.027098967067625854 -6.754470009333406 -0.024752626598097065 -0.012035823517216356 -0.00597510446214805 0.00670427910264437 -0.0029818398104142995 8.038059673451619 3.4705824718089997 -19.216232405283584 0.03593214723491087 10.374740816546609 0.020632676750363378 -5.594964005411598 -15.653276953292266 3.2047540316793026 -0.029423012418330393 -0.0011341349732904753 0.023275650229390273 -0.03122201609090384 4.655732331400789 0.034616777202066545 12.449062155065814 -8.280048042247785 6.857114024868179 0.026065429581876305 46.42595475359141 0.024012754735550087 -4.308287027918513 -14.794885779343899 -3.879362651412413 -0.018754270445609598 -0.005686906636357641 -0.041266822861771704 -0.04578421545693139 -10.697992073940801 -0.04509471687246902 
-0.009779670736989973 -0.0032134687971121807 0.030838716430924784 -0.011206905817330116 -0.00920855155506277 -0.04691957898871277 -1.3816270261371015 1.1977258843243286 -0.9844095829440132 -0.38580744226662594 3.9936878906175695 0.3471080326305938 -0.8136341191961374 -1.9470135821520576 1.666564508479073 -1.2969309415403107 -0.7781919498679336 -0.3326708607435824 -0.32873270774238733 15.584778534643306 1.2855906668503152 0.5334278933389187 -0.4171519791108585 1.607666737544727 0.42405389553546796 -15.704740225075067 0.09965015850257902 -4.496235284065604 1.6943856975595943 -13.753872535976793 70.69144060573427 1.827930294568676 47.52970861208707 6.200984507885169 4.7097618079746955 113.6803914828208 18.272144631005265 -0.5577016052041672 -0.9997237019171871 4.533103981399889 -0.08058348724685357 -1.5837001132145851 0.0020499390088299686 -0.002142436724706699 -56.278634997523035 -0.0013682179054299991 -0.005946556661820253 -56.2715865328235 -38.81125124615211 -0.00808308327672578 -0.04512969912227415 0.007509092751134024 -0.04253103288885652 -0.0349350058577985 -0.0018401702367683637 -0.03413484574735079 -0.043418569003733094 -36.71864286727056 -0.02857816953889694 0.041043603511731 0.03213665123871431 -0.04584213575891687 -0.011124777320894319 -0.029172205340821787 -0.007531682537025142 0.022185358096439914 -19.74416022670387 -0.02951663018005686 0.03137749557469709 -0.02972588624974057 -0.013178156107544296 0.03887968345632153 0.02544114951250522 0.005358962591795569 0.015049626574199592 24.026469419826068 -0.01993066571400046 0.047457698789500936 28.884317469084205 -0.04252491879921908 0.02436180869660756 28.880408245822952 -0.008142061473988384 0.035067822374597934 6.240730895951502 1.5274365090139777 13.524530411549293 -70.0840636610553 18.92325139545827 -30.331676034166755 6.460615230238991 -5.583633680259164 -105.7166649610836 -16.86069482407227 8.502537457755068 -7.852760318151562 -0.4705330852113699 0.035314838164632614 -8.166882193532564 0.018754839468596747 -0.000715449507000691 44.54496572007073 0.03831800434670791 0.03654674019526611 44.55799130892091 12.456491493064926 0.0016690064735010207 -0.0072728996516073395 0.030584962216565547 -0.038696965095959567 -0.00831924496495753 0.011740822349152065 -0.0023678212911237427 0.009343070711105933 11.09388759673119 -7.666534292037832e-05 0.005829073227403993 -0.014787668665952849 -0.010354517132886792 -0.00957462729963471 -0.011914435370486462 0.019847873672484487 0.046007278548730095 4.756662659325099 -0.04429601911207095 0.013097491344666942 0.003329661852745268 -0.02527641515173597 0.04027983046529164 0.03767982534473032 -0.0009927576664383684 -0.011859312570363816 -5.550786624613744 0.007118385107546539 0.012510802471071461 -6.72472121685105 0.01051347536109944 0.013503390063426844 -6.73874850238906 0.04596599443252582 0.0409225986704256 -0.006065294975828007 -0.004187740957721538 0.01208119634979541 8.0913890341333 3.4691189708659045 -19.19473123024185 -0.026362690393624516 10.39565529631124 0.045608207329326786 -5.658173453399882 -15.6182440211305 3.232900811216602 0.01870433292123542 0.03260075978016246 0.00658813584207679 -0.017643710597875138 4.69839434074401 0.002601888944855188 12.476181833749568 -8.243524463658618 6.921130226818506 0.043446439250205936 46.35474817227365 -1.419824322756438e-05 -4.3726752989646105 -14.763467050080457 -3.8001595846863787 -0.023407556955867864 0.03139814196148998 -0.009595646240629386 -0.04813628314669448 -10.725268861454792 0.0036049840718724527 
